<svg width="1349" height="1136" viewBox="0 0 1349 1136" fill="none" xmlns="http://www.w3.org/2000/svg">
<g clip-path="url(#clip0)">
<path opacity="0.1" d="M526.83 197.66C556.04 171.66 601.89 166.33 643.63 168.4C774.72 174.92 893.05 238.2 995.41 309.79C1032.47 335.7 1068.95 363.63 1093 399.32C1142 471.97 1127.44 572.61 1059.36 632.46C1036.19 652.82 1008.11 668.46 979.28 682.27C928.02 706.87 872.71 726.62 814.53 732.27C773.05 736.27 731.05 733.02 689.8 727.43C574.57 711.77 461.48 677.21 366.65 618.09C325.07 592.16 285.88 559.92 268.74 517.99C251.6 476.06 262.57 422.86 305.03 397.99C322.59 387.72 343.59 383.08 364.14 378.72C394.4 372.31 425.14 365.99 452.44 352.96C480.65 339.5 514.04 313.47 508.44 283.67C502.48 251.74 497.66 223.66 526.83 197.66Z" fill="#6C63FF"/>
<path d="M887.95 836.89C887.95 836.89 913.01 792.5 950.74 779.71C966.602 774.446 980.329 764.179 989.86 750.45C994.334 743.898 998.197 736.949 1001.4 729.69" stroke="#535461" stroke-width="2" stroke-miterlimit="10"/>
<path d="M1025.14 721.48C1020.84 725.66 1000.81 729.97 1000.81 729.97C1000.81 729.97 1005.72 710.08 1010.02 705.91C1012.08 703.905 1014.86 702.802 1017.74 702.844C1020.62 702.887 1023.36 704.07 1025.36 706.135C1027.37 708.2 1028.47 710.976 1028.43 713.854C1028.39 716.732 1027.2 719.475 1025.14 721.48V721.48Z" fill="#6C63FF"/>
<path d="M1013.81 757.47C1007.93 758.64 988.81 751.38 988.81 751.38C988.81 751.38 1003.75 737.38 1009.62 736.18C1012.44 735.619 1015.37 736.203 1017.77 737.802C1020.16 739.402 1021.82 741.887 1022.38 744.71C1022.94 747.533 1022.36 750.464 1020.76 752.857C1019.16 755.25 1016.67 756.909 1013.85 757.47H1013.81Z" fill="#6C63FF"/>
<path d="M972.56 796.41C966.89 794.41 954.02 778.51 954.02 778.51C954.02 778.51 974.02 773.95 979.66 775.91C981.036 776.353 982.309 777.066 983.405 778.007C984.501 778.948 985.399 780.099 986.044 781.392C986.69 782.685 987.07 784.094 987.164 785.536C987.257 786.978 987.062 788.424 986.589 789.789C986.116 791.155 985.375 792.412 984.41 793.487C983.444 794.562 982.274 795.434 980.967 796.051C979.66 796.667 978.244 797.017 976.8 797.079C975.356 797.14 973.915 796.913 972.56 796.41V796.41Z" fill="#6C63FF"/>
<path d="M934.71 818.85C928.8 817.85 913.42 804.34 913.42 804.34C913.42 804.34 932.33 796.46 938.24 797.44C939.656 797.66 941.015 798.158 942.238 798.907C943.46 799.655 944.523 800.638 945.363 801.799C946.204 802.96 946.806 804.276 947.135 805.671C947.464 807.066 947.514 808.512 947.28 809.927C947.047 811.341 946.536 812.695 945.777 813.91C945.017 815.126 944.024 816.179 942.855 817.009C941.687 817.839 940.365 818.429 938.967 818.745C937.569 819.061 936.122 819.096 934.71 818.85V818.85Z" fill="#6C63FF"/>
<path d="M972.07 735.84C972.07 741.84 982.91 759.21 982.91 759.21C982.91 759.21 993.77 741.84 993.77 735.85C993.77 732.972 992.627 730.213 990.592 728.178C988.557 726.143 985.798 725 982.92 725C980.042 725 977.283 726.143 975.248 728.178C973.213 730.213 972.07 732.972 972.07 735.85V735.84Z" fill="#6C63FF"/>
<path d="M928.14 762.64C929.94 768.36 945.48 781.7 945.48 781.7C945.48 781.7 950.64 761.87 948.85 756.15C947.989 753.404 946.073 751.112 943.523 749.778C940.972 748.445 937.996 748.179 935.25 749.04C932.504 749.901 930.212 751.817 928.878 754.367C927.545 756.918 927.279 759.894 928.14 762.64V762.64Z" fill="#6C63FF"/>
<path d="M889.02 794.54C889.82 800.48 902.89 816.26 902.89 816.26C902.89 816.26 911.33 797.59 910.53 791.65C910.147 788.798 908.646 786.214 906.358 784.468C904.07 782.722 901.182 781.957 898.33 782.34C895.478 782.723 892.894 784.224 891.148 786.512C889.402 788.8 888.637 791.688 889.02 794.54Z" fill="#6C63FF"/>
<path opacity="0.25" d="M1025.14 721.48C1020.84 725.66 1000.81 729.97 1000.81 729.97C1000.81 729.97 1005.72 710.08 1010.02 705.91C1012.08 703.905 1014.86 702.802 1017.74 702.844C1020.62 702.887 1023.36 704.07 1025.36 706.135C1027.37 708.2 1028.47 710.976 1028.43 713.854C1028.39 716.732 1027.2 719.475 1025.14 721.48V721.48Z" fill="black"/>
<path opacity="0.25" d="M1013.81 757.47C1007.93 758.64 988.81 751.38 988.81 751.38C988.81 751.38 1003.75 737.38 1009.62 736.18C1012.44 735.619 1015.37 736.203 1017.77 737.802C1020.16 739.402 1021.82 741.887 1022.38 744.71C1022.94 747.533 1022.36 750.464 1020.76 752.857C1019.16 755.25 1016.67 756.909 1013.85 757.47H1013.81Z" fill="black"/>
<path opacity="0.25" d="M972.56 796.41C966.89 794.41 954.02 778.51 954.02 778.51C954.02 778.51 974.02 773.95 979.66 775.91C981.036 776.353 982.309 777.066 983.405 778.007C984.501 778.948 985.399 780.099 986.044 781.392C986.69 782.685 987.07 784.094 987.164 785.536C987.257 786.978 987.062 788.424 986.589 789.789C986.116 791.155 985.375 792.412 984.41 793.487C983.444 794.562 982.274 795.434 980.967 796.051C979.66 796.667 978.244 797.017 976.8 797.079C975.356 797.14 973.915 796.913 972.56 796.41V796.41Z" fill="black"/>
<path opacity="0.25" d="M934.71 818.85C928.8 817.85 913.42 804.34 913.42 804.34C913.42 804.34 932.33 796.46 938.24 797.44C939.656 797.66 941.015 798.158 942.238 798.907C943.46 799.655 944.523 800.638 945.363 801.799C946.204 802.96 946.806 804.276 947.135 805.671C947.464 807.066 947.514 808.512 947.28 809.927C947.047 811.341 946.536 812.695 945.777 813.91C945.017 815.126 944.024 816.179 942.855 817.009C941.687 817.839 940.365 818.429 938.967 818.745C937.569 819.061 936.122 819.096 934.71 818.85V818.85Z" fill="black"/>
<path opacity="0.25" d="M972.07 735.84C972.07 741.84 982.91 759.21 982.91 759.21C982.91 759.21 993.77 741.84 993.77 735.85C993.77 732.972 992.627 730.213 990.592 728.178C988.557 726.143 985.798 725 982.92 725C980.042 725 977.283 726.143 975.248 728.178C973.213 730.213 972.07 732.972 972.07 735.85V735.84Z" fill="black"/>
<path opacity="0.25" d="M928.14 762.64C929.94 768.36 945.48 781.7 945.48 781.7C945.48 781.7 950.64 761.87 948.85 756.15C947.989 753.404 946.073 751.112 943.523 749.778C940.972 748.445 937.996 748.179 935.25 749.04C932.504 749.901 930.212 751.817 928.878 754.367C927.545 756.918 927.279 759.894 928.14 762.64V762.64Z" fill="black"/>
<path opacity="0.25" d="M889.02 794.54C889.82 800.48 902.89 816.26 902.89 816.26C902.89 816.26 911.33 797.59 910.53 791.65C910.147 788.798 908.646 786.214 906.358 784.468C904.07 782.722 901.182 781.957 898.33 782.34C895.478 782.723 892.894 784.224 891.148 786.512C889.402 788.8 888.637 791.688 889.02 794.54Z" fill="black"/>
<path d="M889.39 835.99C889.39 835.99 894.31 785.25 923.63 758.27C935.997 747.027 944.383 732.075 947.53 715.66C948.969 707.853 949.686 699.929 949.67 691.99" stroke="#535461" stroke-width="2" stroke-miterlimit="10"/>
<path d="M968.04 674.91C965.8 680.47 949.24 692.53 949.24 692.53C949.24 692.53 945.68 672.35 947.92 666.8C948.427 665.444 949.201 664.203 950.195 663.15C951.189 662.097 952.384 661.254 953.709 660.67C955.034 660.087 956.463 659.774 957.911 659.751C959.358 659.728 960.796 659.995 962.139 660.536C963.482 661.078 964.703 661.882 965.731 662.903C966.758 663.924 967.57 665.14 968.12 666.479C968.67 667.819 968.946 669.255 968.933 670.703C968.919 672.151 968.615 673.581 968.04 674.91V674.91Z" fill="#6C63FF"/>
<path d="M972.27 712.4C967.37 715.85 946.91 716.97 946.91 716.97C946.91 716.97 954.91 698.1 959.78 694.65C960.945 693.83 962.261 693.247 963.652 692.936C965.042 692.624 966.481 692.589 967.885 692.834C969.289 693.078 970.631 693.596 971.835 694.359C973.038 695.122 974.08 696.114 974.9 697.28C975.72 698.445 976.303 699.761 976.614 701.152C976.926 702.542 976.961 703.981 976.716 705.385C976.472 706.789 975.954 708.131 975.191 709.335C974.428 710.538 973.435 711.58 972.27 712.4Z" fill="#6C63FF"/>
<path d="M950.34 764.72C944.34 765.22 926.14 755.86 926.14 755.86C926.14 755.86 942.55 743.6 948.48 743.09C951.348 742.849 954.195 743.757 956.394 745.614C958.593 747.472 959.964 750.127 960.205 752.995C960.446 755.863 959.538 758.71 957.681 760.909C955.823 763.108 953.168 764.479 950.3 764.72H950.34Z" fill="#6C63FF"/>
<path d="M924.83 800.57C919.03 802.07 899.49 795.93 899.49 795.93C899.49 795.93 913.58 781.06 919.38 779.56C920.769 779.17 922.222 779.06 923.654 779.239C925.086 779.417 926.469 779.879 927.72 780.598C928.971 781.317 930.066 782.278 930.941 783.425C931.817 784.573 932.454 785.883 932.817 787.28C933.179 788.677 933.259 790.132 933.053 791.56C932.846 792.988 932.356 794.361 931.613 795.598C930.869 796.834 929.886 797.91 928.721 798.762C927.557 799.614 926.234 800.225 924.83 800.56V800.57Z" fill="#6C63FF"/>
<path d="M925.35 709.53C927.77 715.01 944.73 726.53 944.73 726.53C944.73 726.53 947.62 706.25 945.19 700.77C943.99 698.195 941.828 696.192 939.168 695.194C936.508 694.195 933.562 694.28 930.964 695.43C928.366 696.58 926.322 698.703 925.273 701.343C924.223 703.983 924.251 706.93 925.35 709.55V709.53Z" fill="#6C63FF"/>
<path d="M896.05 751.84C900 756.34 919.62 762.24 919.62 762.24C919.62 762.24 916.31 742.02 912.35 737.52C911.418 736.422 910.277 735.52 908.992 734.868C907.708 734.215 906.307 733.825 904.87 733.72C903.434 733.614 901.99 733.796 900.625 734.255C899.259 734.713 897.999 735.439 896.916 736.389C895.834 737.34 894.952 738.497 894.322 739.792C893.691 741.087 893.325 742.495 893.245 743.933C893.164 745.371 893.37 746.811 893.852 748.169C894.334 749.526 895.081 750.774 896.05 751.84V751.84Z" fill="#6C63FF"/>
<path d="M873.21 796.86C876.35 801.97 894.69 811.09 894.69 811.09C894.69 811.09 894.84 790.61 891.69 785.5C890.944 784.286 889.966 783.231 888.813 782.394C887.659 781.558 886.352 780.957 884.966 780.626C883.58 780.295 882.142 780.241 880.735 780.465C879.328 780.69 877.979 781.189 876.765 781.935C875.551 782.681 874.496 783.659 873.659 784.812C872.823 785.966 872.222 787.273 871.891 788.659C871.56 790.045 871.506 791.483 871.73 792.89C871.955 794.297 872.454 795.646 873.2 796.86H873.21Z" fill="#6C63FF"/>
<path opacity="0.1" d="M577.17 1001.98C642.826 1001.98 696.05 993.057 696.05 982.05C696.05 971.043 642.826 962.12 577.17 962.12C511.514 962.12 458.29 971.043 458.29 982.05C458.29 993.057 511.514 1001.98 577.17 1001.98Z" fill="#6C63FF"/>
<path opacity="0.1" d="M811.16 848.99C876.816 848.99 930.04 840.067 930.04 829.06C930.04 818.053 876.816 809.13 811.16 809.13C745.504 809.13 692.28 818.053 692.28 829.06C692.28 840.067 745.504 848.99 811.16 848.99Z" fill="#6C63FF"/>
<path d="M819.05 566.03L818.94 569.92L812.18 808.44H800.82L806.39 569.92L806.5 565.43L819.05 566.03Z" fill="#B77B7F"/>
<path d="M884.82 768.09L876.31 768.07L749.87 767.8L743.13 767.79L746.72 756.73H883.92L884.82 768.09Z" fill="#DDA2A6"/>
<path opacity="0.1" d="M819.05 566.03L818.94 569.92H806.39L806.5 565.43L819.05 566.03Z" fill="black"/>
<path d="M823.84 560.2H802.77V568.13H823.84V560.2Z" fill="#B77B7F"/>
<path opacity="0.1" d="M750.99 756.73L749.87 767.8L743.13 767.79L746.72 756.73H750.99Z" fill="black"/>
<path d="M769.14 560.05L768.79 563.49L740.74 840.13L727.89 839.52L757.45 563.49L757.78 560.35L769.14 560.05Z" fill="#DDA2A6"/>
<path opacity="0.1" d="M884.82 768.09L876.31 768.07L875.16 756.73H883.92L884.82 768.09Z" fill="black"/>
<path d="M898.27 839.52L885.41 840.13L857.37 563.49L857.02 560.05L868.37 560.35L868.7 563.49L898.27 839.52Z" fill="#DDA2A6"/>
<path d="M952.96 287.3H669.6V559H952.96V287.3Z" fill="white"/>
<path d="M816.81 196.43V262.04H805.76V196.43C805.728 195.685 805.848 194.941 806.111 194.243C806.374 193.545 806.776 192.907 807.292 192.369C807.809 191.83 808.428 191.401 809.115 191.109C809.801 190.816 810.539 190.665 811.285 190.665C812.031 190.665 812.769 190.816 813.455 191.109C814.142 191.401 814.761 191.83 815.278 192.369C815.794 192.907 816.196 193.545 816.459 194.243C816.722 194.941 816.842 195.685 816.81 196.43V196.43Z" fill="#DDA2A6"/>
<path opacity="0.1" d="M816.81 256.07H805.75V262.04H816.81V256.07Z" fill="black"/>
<path d="M821.15 260.55V282.21H801.48V260.55C801.479 260.196 801.547 259.846 801.682 259.519C801.817 259.192 802.015 258.895 802.265 258.645C802.515 258.395 802.812 258.197 803.139 258.062C803.466 257.927 803.816 257.859 804.17 257.86H818.48C819.19 257.865 819.869 258.151 820.369 258.655C820.869 259.159 821.15 259.84 821.15 260.55Z" fill="#DDA2A6"/>
<path opacity="0.1" d="M811.28 275.79C813.589 275.79 815.46 273.919 815.46 271.61C815.46 269.301 813.589 267.43 811.28 267.43C808.971 267.43 807.1 269.301 807.1 271.61C807.1 273.919 808.971 275.79 811.28 275.79Z" fill="black"/>
<path d="M811.28 274.89C813.589 274.89 815.46 273.019 815.46 270.71C815.46 268.401 813.589 266.53 811.28 266.53C808.971 266.53 807.1 268.401 807.1 270.71C807.1 273.019 808.971 274.89 811.28 274.89Z" fill="#B77B7F"/>
<path opacity="0.1" d="M821.15 279.53H801.42V282.22H821.15V279.53Z" fill="black"/>
<path opacity="0.1" d="M829.22 283.12H793.35V289.1H829.22V283.12Z" fill="black"/>
<path d="M829.22 281.32H793.35V287.3H829.22V281.32Z" fill="#DDA2A6"/>
<path opacity="0.1" d="M738.72 552H889.37C891.094 552 892.747 552.685 893.966 553.904C895.185 555.123 895.87 556.776 895.87 558.5V559.92H732.22V558.5C732.22 556.776 732.905 555.123 734.124 553.904C735.343 552.685 736.996 552 738.72 552V552Z" fill="black"/>
<path opacity="0.1" d="M757.78 560.35L769.14 560.05L768.79 563.49H757.45L757.78 560.35Z" fill="black"/>
<path opacity="0.1" d="M823.84 560.2H802.77V563.49H823.84V560.2Z" fill="black"/>
<path opacity="0.1" d="M868.7 563.49H857.37L857.02 560.05L868.37 560.35L868.7 563.49Z" fill="black"/>
<path d="M738.72 553.77H889.37C891.094 553.77 892.747 554.455 893.966 555.674C895.185 556.893 895.87 558.546 895.87 560.27V561.69H732.22V560.27C732.22 558.546 732.905 556.893 734.124 555.674C735.343 554.455 736.996 553.77 738.72 553.77V553.77Z" fill="#DDA2A6"/>
<path d="M705.69 427.63C703.42 426.43 678.69 407.75 678.69 407.75L638.78 382.44C638.78 382.44 638.57 381.84 638.19 380.81C649.14 368.38 646.75 350.34 635.61 337.66C622.11 322.28 561.11 289.17 542.73 317.49C540.16 321.49 540.07 326.03 539.4 330.43C537.83 340.7 532.77 350.65 524.83 359.03C518.71 365.5 510.68 371.46 507.16 378.78C507.16 378.69 507.09 378.6 507.06 378.5C506.21 380.069 505.594 381.753 505.23 383.5C503.48 392.43 509.48 400.99 512.67 409.68C513.741 412.623 514.518 415.664 514.99 418.76C515.07 418.14 515.14 417.53 515.21 416.91C515.987 421.318 516.253 425.801 516 430.27C493.85 434.78 493.84 472.67 493.84 472.67C493.84 472.67 491.11 487.73 491.57 493.16C492.03 498.59 492.02 510.33 492.02 513.16C492.02 515.99 489.29 533.64 489.02 535.76C489.023 535.79 489.023 535.82 489.02 535.85C488.62 538.17 484.47 549.35 494.5 551.85C495.2 552.03 495.94 552.18 496.71 552.32C497.14 561.37 497.92 580.32 497.23 584.54C497.23 584.54 500.88 610 503.91 616.47C505.826 620.264 508.068 623.884 510.61 627.29C510.39 628.84 509.867 630.332 509.07 631.68C507.52 633.91 508.32 635.74 510.91 636.53C510.82 637.3 510.72 638.17 510.61 639.15C509.5 648.97 507.84 668.49 510.66 678.38C514.53 691.94 514.76 696.46 514.76 696.46C514.76 696.46 514.76 700.52 516.36 702.78C517.96 705.04 520.91 726.06 520.91 729.45C520.91 732.84 528.65 763.34 526.37 770.57C524.09 777.8 525.92 787.97 525.92 787.97C525.92 787.97 524.55 805.82 522.92 809.66C521.29 813.5 520.64 875.41 523.14 891.45C525.64 907.49 527.24 920.82 527.24 920.82C527.24 920.82 525.65 935.51 527.01 937.54C528.37 939.57 530.88 951.78 529.06 952.45C527.24 953.12 526.33 958.1 526.33 958.1C527.292 959.563 528.331 960.975 529.44 962.33C528.738 962.085 528.054 961.794 527.39 961.46C528.11 962.46 529.19 963.88 530.52 965.46L529.27 981.71C529.218 982.344 529.389 982.976 529.754 983.497C530.12 984.018 530.656 984.394 531.27 984.56C535.263 985.645 539.476 985.627 543.459 984.507C547.443 983.387 551.048 981.207 553.89 978.2C565.27 966.68 569.14 968.26 571.19 961.26C571.41 960.51 571.6 959.77 571.76 959.07C573.23 952.83 566.58 948.19 561.29 950.85C562.02 945.91 562.59 940.3 562.04 937.13C560.9 930.58 561.13 913.41 561.13 913.41L559.54 831.16C559.54 831.16 562.49 814.89 565.91 808.57C569.33 802.25 568.91 780.1 568.91 780.1L572.78 707.34L576.42 671.87C576.42 671.87 580.06 659.67 584.61 673.23C584.61 673.23 582.11 700.56 583.25 707.12C584.39 713.68 585.98 745.53 584.84 752.53C583.7 759.53 578.7 797.95 581.84 807.66C584.98 817.37 588.48 829.14 587.78 832.99C587.08 836.84 584.78 920.2 584.78 920.2C584.78 920.2 590.93 936.2 586.38 941.44C581.83 946.68 586.15 967.44 586.15 967.44C586.15 967.44 586.7 967.83 587.64 968.37L587.51 970.1L586.08 988.79C586.029 989.425 586.201 990.058 586.566 990.58C586.931 991.102 587.466 991.48 588.08 991.65C592.073 992.736 596.286 992.719 600.27 991.599C604.253 990.479 607.858 988.298 610.7 985.29C622.08 973.76 625.95 975.35 628 968.34C628.22 967.59 628.41 966.86 628.58 966.15C630.18 959.34 622.08 954.4 616.66 958.85L616.39 959.08C616.107 959.321 615.81 959.544 615.5 959.75C615.356 959.856 615.206 959.953 615.05 960.04C616.19 954.88 617.85 946.04 617.05 941.9C615.91 935.8 618.18 917.28 618.18 917.28C618.18 917.28 624.78 895.13 625.01 886.28L626.83 815.79C626.83 815.79 626.61 787.09 627.52 780.09C628.43 773.09 635.71 712.53 642.99 694.45C648.58 680.61 651.08 645.29 649.6 627.38C649.52 626.5 649.44 625.65 649.34 624.86C658.27 618.27 659.16 607.31 659.16 607.31C659.16 607.31 650.96 591.65 643.07 585.02C635.18 578.39 633.48 566.99 633.76 562.14C633.894 559.185 632.921 556.286 631.03 554.01C631.03 554.01 627.39 542.26 624.96 541.06C624.761 540.959 624.582 540.823 624.43 540.66C622.78 538.89 624.05 533.83 624.05 533.83V533.67C624.34 532.5 626.05 524.92 625.54 522.98C624.93 520.88 625.84 510.93 625.84 510.93C625.84 510.93 631.61 493.76 630.7 480.2C629.79 466.64 642.54 467.85 642.54 467.85L681.91 467.44H686.39C687.97 466.099 689.413 464.605 690.7 462.98C698.2 462.09 713.37 459.26 715.07 450.98C717.38 439.99 707.97 428.84 705.69 427.63ZM523.29 552.99L523.56 546.1C524.49 546.9 525.11 547.41 525.11 547.41C525.612 549.213 525.636 551.115 525.18 552.93C524.936 553.782 524.502 554.569 523.912 555.23C523.321 555.891 522.589 556.411 521.77 556.75C521.58 556.833 521.396 556.93 521.22 557.04L520.84 553.15L523.29 552.99ZM666.09 431.99C664.42 431.24 658.8 431.39 655.91 431.39C653.02 431.39 648.33 428.98 648.33 428.98C647.33 427.03 641.8 425.87 636.88 425.21C633.14 415.99 627.88 407 627.17 397.39C627.17 397.04 627.17 396.69 627.12 396.34L627.69 397.34C627.69 397.34 650.61 411.96 653.19 416.34C655.19 419.68 664.82 427.14 669.28 430.48C668.666 431.281 667.805 431.858 666.83 432.12C666.576 432.148 666.319 432.102 666.09 431.99V431.99Z" fill="url(#paint0_linear)"/>
<path d="M628.24 966.21C628.07 966.91 627.89 967.64 627.67 968.38C625.67 975.38 621.84 973.76 610.67 985.19C607.887 988.173 604.341 990.339 600.416 991.453C596.49 992.567 592.336 992.587 588.4 991.51C587.786 991.348 587.249 990.974 586.883 990.454C586.517 989.935 586.346 989.303 586.4 988.67L587.81 970.13L588.48 961.21C588.48 961.21 606.32 966.21 615.4 959.86C615.705 959.652 615.998 959.428 616.28 959.19C616.35 959.127 616.417 959.06 616.48 958.99C617.652 958.02 619.098 957.441 620.616 957.334C622.133 957.226 623.646 957.597 624.943 958.393C626.24 959.189 627.255 960.371 627.846 961.772C628.437 963.174 628.575 964.726 628.24 966.21V966.21Z" fill="#67647E"/>
<path d="M572.24 959.21C572.07 959.91 571.89 960.64 571.67 961.38C569.67 968.38 565.84 966.76 554.67 978.19C551.887 981.173 548.341 983.339 544.416 984.453C540.49 985.567 536.336 985.587 532.4 984.51C531.786 984.348 531.249 983.974 530.883 983.454C530.517 982.935 530.346 982.303 530.4 981.67L531.81 963.13L532.48 954.21C532.48 954.21 550.32 959.21 559.4 952.86C559.705 952.652 559.998 952.428 560.28 952.19C560.35 952.127 560.417 952.06 560.48 951.99C561.652 951.02 563.098 950.441 564.616 950.334C566.133 950.226 567.646 950.597 568.943 951.393C570.24 952.189 571.255 953.371 571.846 954.772C572.437 956.174 572.575 957.726 572.24 959.21V959.21Z" fill="#67647E"/>
<path opacity="0.1" d="M553.81 961.99L554.53 971.63C544.29 981.86 532.1 966.63 528.53 961.63C537.92 966.47 553.81 961.99 553.81 961.99Z" fill="black"/>
<path opacity="0.1" d="M614 965.91L615.34 965.02C605.99 979.24 592.1 972.68 587.77 970.13L588.44 961.21C588.44 961.21 606.28 966.21 615.36 959.86C614.65 963.34 614 965.91 614 965.91Z" fill="black"/>
<path d="M642.48 696.68C635.3 714.61 628.13 774.68 627.23 781.68C626.33 788.68 626.56 817.1 626.56 817.1L624.76 886.99C624.53 895.74 618.03 917.71 618.03 917.71C618.03 917.71 615.79 936.09 616.91 942.14C618.03 948.19 614 964.14 614 964.14L615.34 963.24C604.13 980.24 586.42 967.5 586.42 967.5C586.42 967.5 582.16 946.88 586.65 941.72C591.14 936.56 585.08 920.65 585.08 920.65C585.08 920.65 587.32 837.93 587.99 834.12C588.66 830.31 585.3 818.65 582.16 809.01C579.02 799.37 583.96 761.26 585.08 754.31C586.2 747.36 584.63 715.75 583.51 709.25C582.39 702.75 584.85 675.62 584.85 675.62C580.37 662.17 576.78 674.28 576.78 674.28L573.19 709.47L569.38 781.66C569.38 781.66 569.83 803.66 566.47 809.91C563.11 816.16 560.19 832.32 560.19 832.32L561.76 913.93C561.76 913.93 561.54 930.93 562.66 937.46C563.78 943.99 560.19 960.78 560.19 960.78C547.64 990.35 527.48 958.29 527.48 958.29C527.48 958.29 528.38 953.36 530.17 952.69C531.96 952.02 529.5 939.91 528.17 937.89C526.84 935.87 528.39 921.3 528.39 921.3C528.39 921.3 526.82 908.08 524.39 892.16C521.96 876.24 522.6 814.82 524.17 811.01C525.74 807.2 527.08 789.49 527.08 789.49C527.08 789.49 525.29 779.4 527.53 772.22C529.77 765.04 522.15 734.79 522.15 731.42C522.15 728.05 519.24 707.21 517.67 704.97C516.1 702.73 516.1 698.69 516.1 698.69C516.1 698.69 515.88 694.21 512.1 680.76C509.32 670.94 510.96 651.58 512.05 641.83C512.44 638.22 512.78 635.92 512.78 635.92C512.78 635.92 641.35 615.07 646.48 619.78C647.68 620.89 648.48 624.7 648.95 630.13C650.48 647.89 647.96 682.99 642.48 696.68Z" fill="#444053"/>
<path opacity="0.1" d="M593.82 797.48C594.42 797.48 608.62 798.68 613.82 797.63C619.02 796.58 593.82 797.48 593.82 797.48Z" fill="black"/>
<path opacity="0.1" d="M594.87 805.85C594.87 805.85 614.48 809.29 615.48 807.5C616.48 805.71 594.87 805.85 594.87 805.85Z" fill="black"/>
<path opacity="0.1" d="M534.94 802.26C534.94 802.26 545.1 802.71 550.63 805.26C556.16 807.81 534.94 802.26 534.94 802.26Z" fill="black"/>
<path d="M498.02 550.89C498.02 550.89 499.66 582.12 498.77 587.65C498.77 587.65 502.35 612.91 505.34 619.33C508.33 625.75 514.76 633.83 514.76 633.83L523.58 571.83L521.48 550.59L498.02 550.89Z" fill="#EFB7B9"/>
<path d="M590.68 408.61C609.745 408.61 625.2 393.155 625.2 374.09C625.2 355.025 609.745 339.57 590.68 339.57C571.615 339.57 556.16 355.025 556.16 374.09C556.16 393.155 571.615 408.61 590.68 408.61Z" fill="#EFB7B9"/>
<path d="M572.75 390.22C572.75 390.22 561.99 411.3 551.23 421.16C540.47 431.02 615.79 442.23 617.58 442.23C619.37 442.23 604.13 397.4 606.82 391.99C609.51 386.58 572.75 390.22 572.75 390.22Z" fill="#EFB7B9"/>
<path opacity="0.1" d="M648.97 630.13C647.28 631.421 645.414 632.465 643.43 633.23C629.69 638.61 614.74 646.08 604.58 643.1C594.42 640.12 572.9 643.1 572.9 643.1C572.9 643.1 529.55 639.51 520.9 641.6C516.96 642.55 513.9 642.51 511.9 641.83C512.29 638.22 512.63 635.92 512.63 635.92C512.63 635.92 641.35 615.07 646.48 619.78C647.7 620.89 648.48 624.7 648.97 630.13Z" fill="black"/>
<path d="M658.38 610.21C658.38 610.21 657.19 625.16 643.43 630.54C629.67 635.92 614.74 643.39 604.58 640.41C594.42 637.43 572.9 640.41 572.9 640.41C572.9 640.41 529.55 636.82 520.9 638.91C512.25 641 507.74 638.32 510.43 634.43C513.12 630.54 512.83 617.69 512.83 612.31C512.83 606.93 509.83 585.11 512.52 581.22C515.21 577.33 517.6 562.39 522.98 559.99C523.788 559.65 524.509 559.133 525.091 558.477C525.672 557.821 526.099 557.043 526.34 556.2C526.785 554.401 526.761 552.517 526.27 550.73C526.27 550.73 525.36 549.98 524.11 548.87C520.94 546.04 515.58 540.79 517.3 539.07C519.69 536.67 517.3 521.13 517.3 521.13C517.3 521.13 511.62 509.18 513.72 504.7C515.82 500.22 495.48 476.6 495.48 476.6C495.48 476.6 495.48 435.96 519.99 434.16C519.99 434.16 537.33 434.76 539.42 426.99C541.51 419.22 555.26 414.73 555.26 414.73L586.65 421.61C586.65 421.61 614.44 427.61 619.53 424C624.62 420.39 628.53 428.78 628.53 428.78C628.53 428.78 645.86 429.68 647.65 433.27C649.44 436.86 641.98 471.82 641.98 471.82C641.98 471.82 629.42 470.63 630.32 484.08C631.22 497.53 625.48 514.57 625.48 514.57C625.48 514.57 624.58 524.43 625.18 526.52C625.74 528.45 624 535.97 623.72 537.13V537.28C623.72 537.28 622.47 542.28 624.09 544.06C624.24 544.221 624.416 544.356 624.61 544.46C627.01 545.65 630.61 557.31 630.61 557.31C632.476 559.573 633.435 562.45 633.3 565.38C633.01 570.17 634.8 581.52 642.57 588.1C650.34 594.68 658.38 610.21 658.38 610.21Z" fill="#A36468"/>
<path d="M525.07 540.99V542.26L524.53 556.26C524.53 556.26 506.14 557.75 496.13 555.26C486.12 552.77 490.33 541.66 490.73 539.36C490.734 539.33 490.734 539.3 490.73 539.27C491.02 537.17 493.73 519.69 493.73 516.85C493.73 514.01 493.73 502.35 493.28 496.97C492.83 491.59 495.48 476.6 495.48 476.6L497.42 474.22L518.48 482.29L525.07 540.99Z" fill="#A36468"/>
<path opacity="0.1" d="M525.02 542.29L524.48 556.29C524.48 556.29 506.09 557.78 496.08 555.29C486.07 552.8 490.28 541.69 490.68 539.39L525.02 542.29Z" fill="black"/>
<path opacity="0.1" d="M526.34 556.21C526.785 554.411 526.761 552.527 526.27 550.74C526.27 550.74 525.36 549.99 524.11 548.88C539.94 546.67 602.63 538.07 623.74 537.13V537.28C623.74 537.28 622.49 542.28 624.11 544.06L526.34 556.21Z" fill="black"/>
<path opacity="0.1" d="M626.1 566.99C626.1 566.99 629.99 588.99 615.49 596.73C615.48 596.77 623.71 585.86 626.1 566.99Z" fill="black"/>
<path opacity="0.1" d="M531.2 597.36C531.2 597.36 566.2 591.36 573.05 596.02C579.9 600.68 531.2 597.36 531.2 597.36Z" fill="black"/>
<path opacity="0.1" d="M614 461.21C614 461.21 608.62 483.33 612.65 488.41C616.68 493.49 614 461.21 614 461.21Z" fill="black"/>
<path opacity="0.1" d="M512.67 443.13C512.67 443.13 517.6 451.35 514.61 459.87C511.62 468.39 512.67 443.13 512.67 443.13Z" fill="black"/>
<path opacity="0.1" d="M502.48 515.17C502.48 515.17 508.76 518.9 506.67 524.73C504.58 530.56 502.48 515.17 502.48 515.17Z" fill="black"/>
<path opacity="0.1" d="M501.91 498.13C501.91 498.13 507.73 501.27 508.48 505.9C509.23 510.53 501.91 498.13 501.91 498.13Z" fill="black"/>
<path opacity="0.1" d="M588.29 676.87C588.29 676.87 624.91 680.61 632.23 671.94C632.23 671.99 599.2 678.52 588.29 676.87Z" fill="black"/>
<path opacity="0.1" d="M525.07 674.78C525.07 674.78 564.38 684.05 572.15 676.72C572.15 676.72 538.37 679.26 525.07 674.78Z" fill="black"/>
<path opacity="0.1" d="M591.13 688.99C591.13 688.99 607.57 688.99 615.19 689.44C622.81 689.89 591.13 688.99 591.13 688.99Z" fill="black"/>
<path opacity="0.1" d="M527.76 695.99C527.76 695.99 535.83 705.11 544.95 703.47C554.07 701.83 527.76 695.99 527.76 695.99Z" fill="black"/>
<path d="M543.61 322.64C541.08 326.57 540.99 331.12 540.33 335.48C538.79 345.67 533.8 355.54 525.99 363.86C518.82 371.48 508.99 378.39 507.13 387.7C505.37 396.54 511.34 405.05 514.47 413.7C522.72 436.39 511.2 460.19 507.84 483.61C506.91 490.08 508.03 498.35 516 500.5C518.49 501.18 521.34 501.09 523.58 502.17C526.58 503.61 527.5 506.6 528.05 509.29C530.056 518.912 530.749 528.762 530.11 538.57C529.75 544.07 529.35 550.4 534.55 554.18C536.91 555.91 540.09 556.79 543.16 557.62C551.35 559.83 561.94 561.62 567.46 556.43C569.78 554.26 570.65 551.2 573.54 549.48C577.87 546.91 584.01 548.65 589.46 548.92C600.65 549.48 610.93 542.92 615.34 535.01C619.75 527.1 619.34 518.01 617.74 509.48C616.14 500.95 613.28 492.48 613.08 483.82C613.01 480.82 613.28 477.77 615 475.11C618.33 469.96 626.08 467.62 631.38 463.57C641.31 455.97 641.28 443.52 637.67 433.1C634.06 422.68 627.58 412.69 626.78 401.92C626.423 399.316 626.94 396.668 628.25 394.39C629.67 392.2 632.15 390.56 634.25 388.75C648.74 376.51 647.03 356.41 635.05 342.65C621.79 327.4 561.71 294.55 543.61 322.64Z" fill="#E3787D"/>
<g opacity="0.1">
<path opacity="0.1" d="M516.31 423.12C517.44 414.03 517.23 405.02 514.02 396.17C512.44 391.83 510.15 387.52 508.48 383.17C507.646 384.743 507.04 386.426 506.68 388.17C504.92 397.01 510.89 405.52 514.02 414.17C515.074 417.071 515.841 420.069 516.31 423.12Z" fill="black"/>
<path opacity="0.1" d="M529.66 521.04C530.297 511.232 529.608 501.383 527.61 491.76C527.05 489.07 526.13 486.09 523.13 484.65C520.89 483.57 518.04 483.65 515.55 482.98C514.02 482.613 512.594 481.902 511.381 480.9C510.168 479.898 509.2 478.633 508.55 477.2C508.09 479.48 507.69 481.75 507.36 484.03C506.43 490.5 507.55 498.77 515.52 500.92C518.01 501.59 520.86 501.5 523.1 502.58C526.1 504.02 527.02 507.01 527.58 509.7C528.497 514.163 529.139 518.678 529.5 523.22C529.57 522.48 529.61 521.76 529.66 521.04Z" fill="black"/>
<path opacity="0.1" d="M614.9 517.49C610.48 525.43 600.2 531.96 589.01 531.4C583.56 531.12 577.42 529.4 573.1 531.96C570.21 533.67 569.33 536.74 567.01 538.91C561.49 544.06 550.9 542.31 542.71 540.1C539.64 539.26 536.47 538.39 534.1 536.66C531.841 534.999 530.317 532.524 529.85 529.76C529.91 532.83 529.85 535.91 529.66 538.98C529.3 544.48 528.9 550.81 534.1 554.6C536.47 556.32 539.64 557.2 542.71 558.03C550.9 560.24 561.49 562.03 567.01 556.84C569.33 554.67 570.21 551.61 573.1 549.84C577.42 547.27 583.56 549.01 589.01 549.28C600.2 549.84 610.48 543.28 614.9 535.37C619.14 527.73 618.95 519.09 617.47 510.84C616.913 513.161 616.048 515.397 614.9 517.49Z" fill="black"/>
<path opacity="0.1" d="M633.84 371.27C631.7 373.07 629.22 374.72 627.84 376.91C626.53 379.188 626.013 381.836 626.37 384.44C626.66 387.712 627.352 390.937 628.43 394.04C630.095 392.264 631.92 390.644 633.88 389.2C643.68 380.93 646.06 369.06 642.88 357.98C641.202 363.185 638.064 367.798 633.84 371.27V371.27Z" fill="black"/>
<path opacity="0.1" d="M630.93 446.04C625.64 450.09 617.88 452.44 614.56 457.59C612.83 460.25 612.56 463.32 612.63 466.29C612.753 469.787 613.181 473.267 613.91 476.69C614.099 476.285 614.316 475.894 614.56 475.52C617.88 470.37 625.64 468.03 630.93 463.98C640 457.04 640.76 446.06 638.08 436.27C636.72 440.165 634.231 443.566 630.93 446.04V446.04Z" fill="black"/>
</g>
<path d="M685.28 467.34C685.28 467.34 711.14 466 713.38 455.09C715.62 444.18 706.38 433.09 704.12 431.92C701.86 430.75 677.48 412.19 677.48 412.19L638.18 387.09C638.18 387.09 619.35 333.09 615.18 353.76C611.01 374.43 627.29 401.88 627.29 401.88C627.29 401.88 649.85 416.38 652.39 420.71C654.93 425.04 670.48 436.4 670.48 436.4L685.28 467.34Z" fill="#EFB7B9"/>
<path d="M699.18 449.7C693.06 465.25 685.13 471.38 685.13 471.38H680.72L641.95 471.78L637.48 459.57L643.76 433.11L647.64 433.27C647.64 433.27 652.28 435.66 655.11 435.66C657.94 435.66 663.49 435.51 665.11 436.25C665.336 436.361 665.591 436.399 665.84 436.36C667.31 436.21 668.84 434.01 668.84 434.01C668.84 434.01 705.31 434.16 699.18 449.7Z" fill="#A36468"/>
<path opacity="0.1" d="M699.18 449.7C693.06 465.25 685.13 471.38 685.13 471.38H680.72C683.02 465.22 687.87 452.58 689.72 449.66C691.53 446.9 675.29 440.03 665.79 436.32C667.26 436.17 668.79 433.97 668.79 433.97C668.79 433.97 705.31 434.16 699.18 449.7Z" fill="black"/>
<path opacity="0.1" d="M293.82 939.78C318.22 939.78 338 935.912 338 931.14C338 926.368 318.22 922.5 293.82 922.5C269.42 922.5 249.64 926.368 249.64 931.14C249.64 935.912 269.42 939.78 293.82 939.78Z" fill="#6C63FF"/>
<path opacity="0.1" d="M1030.28 880.44C1048.05 880.44 1062.46 877.624 1062.46 874.15C1062.46 870.676 1048.05 867.86 1030.28 867.86C1012.51 867.86 998.1 870.676 998.1 874.15C998.1 877.624 1012.51 880.44 1030.28 880.44Z" fill="#6C63FF"/>
<path opacity="0.1" d="M1169.77 905.93C1187.54 905.93 1201.95 903.114 1201.95 899.64C1201.95 896.166 1187.54 893.35 1169.77 893.35C1152 893.35 1137.59 896.166 1137.59 899.64C1137.59 903.114 1152 905.93 1169.77 905.93Z" fill="#6C63FF"/>
<path opacity="0.1" d="M953.78 958.43C971.553 958.43 985.96 955.614 985.96 952.14C985.96 948.666 971.553 945.85 953.78 945.85C936.008 945.85 921.6 948.666 921.6 952.14C921.6 955.614 936.008 958.43 953.78 958.43Z" fill="#6C63FF"/>
<path d="M335.57 691.3C335.57 691.3 342.81 700.77 332.23 715.05C321.65 729.33 312.94 741.39 316.48 750.3C316.48 750.3 332.43 723.77 345.42 723.4C358.41 723.03 349.86 707.26 335.57 691.3Z" fill="#6C63FF"/>
<path opacity="0.1" d="M335.57 691.3C336.203 692.225 336.702 693.235 337.05 694.3C349.72 709.19 356.47 723.08 344.29 723.43C332.95 723.75 319.34 744.04 316.08 749.16C316.184 749.558 316.315 749.949 316.47 750.33C316.47 750.33 332.42 723.8 345.41 723.43C358.4 723.06 349.86 707.26 335.57 691.3Z" fill="black"/>
<path d="M349.02 703.36C349.02 706.69 348.65 709.36 348.19 709.36C347.73 709.36 347.35 706.66 347.35 703.36C347.35 700.06 347.82 701.6 348.28 701.6C348.74 701.6 349.02 699.99 349.02 703.36Z" fill="#FFD037"/>
<path d="M353.64 707.34C350.72 708.93 348.17 709.9 347.95 709.49C347.73 709.08 349.95 707.49 352.84 705.87C355.73 704.25 354.61 705.44 354.84 705.87C355.07 706.3 356.56 705.74 353.64 707.34Z" fill="#FFD037"/>
<path d="M297.36 691.3C297.36 691.3 290.12 700.77 300.7 715.05C311.28 729.33 319.99 741.39 316.48 750.3C316.48 750.3 300.48 723.77 287.48 723.4C274.48 723.03 283.07 707.26 297.36 691.3Z" fill="#6C63FF"/>
<path opacity="0.1" d="M297.36 691.3C296.727 692.225 296.228 693.235 295.88 694.3C283.21 709.19 276.46 723.08 288.64 723.43C299.98 723.75 313.64 744.04 316.85 749.16C316.744 749.557 316.618 749.947 316.47 750.33C316.47 750.33 300.47 723.8 287.47 723.43C274.47 723.06 283.07 707.26 297.36 691.3Z" fill="black"/>
<path d="M283.91 703.36C283.91 706.69 284.28 709.36 284.74 709.36C285.2 709.36 285.58 706.66 285.58 703.36C285.58 700.06 285.11 701.6 284.65 701.6C284.19 701.6 283.91 699.99 283.91 703.36Z" fill="#FFD037"/>
<path d="M279.29 707.34C282.22 708.93 284.76 709.9 284.99 709.49C285.22 709.08 282.99 707.49 280.09 705.87C277.19 704.25 278.32 705.44 278.09 705.87C277.86 706.3 276.37 705.74 279.29 707.34Z" fill="#FFD037"/>
<path opacity="0.1" d="M316.46 822.68C358.24 822.68 392.11 817.482 392.11 811.07C392.11 804.658 358.24 799.46 316.46 799.46C274.68 799.46 240.81 804.658 240.81 811.07C240.81 817.482 274.68 822.68 316.46 822.68Z" fill="#6C63FF"/>
<path d="M355.4 737.55L355.04 740.55L354.53 744.72L354.32 746.46L353.81 750.64L353.59 752.38L353.08 756.55L347.3 803.99C346.78 808.23 339.86 811.53 331.5 811.53H301.48C293.12 811.53 286.21 808.23 285.69 803.99L279.9 756.54L279.39 752.37L279.18 750.63L278.66 746.45L278.45 744.71L277.94 740.54L277.58 737.54C277.29 735.14 281.03 733.12 285.76 733.12H347.28C351.95 733.13 355.7 735.15 355.4 737.55Z" fill="#65617D"/>
<path d="M355.03 740.5L354.53 744.68H278.39L277.89 740.5H355.03Z" fill="#9D9CB5"/>
<path d="M354.31 746.42L353.81 750.59H279.12L278.61 746.42H354.31Z" fill="#9D9CB5"/>
<path d="M353.59 752.33L353.08 756.5H279.84L279.33 752.33H353.59Z" fill="#9D9CB5"/>
<path opacity="0.1" d="M382.99 324.02C400.387 324.02 414.49 309.917 414.49 292.52C414.49 275.123 400.387 261.02 382.99 261.02C365.593 261.02 351.49 275.123 351.49 292.52C351.49 309.917 365.593 324.02 382.99 324.02Z" fill="#6C63FF"/>
<path opacity="0.1" d="M316.99 237.02C327.76 237.02 336.49 228.29 336.49 217.52C336.49 206.75 327.76 198.02 316.99 198.02C306.22 198.02 297.49 206.75 297.49 217.52C297.49 228.29 306.22 237.02 316.99 237.02Z" fill="#6C63FF"/>
<path opacity="0.1" d="M215 273.02C221.627 273.02 227 267.647 227 261.02C227 254.393 221.627 249.02 215 249.02C208.373 249.02 203 254.393 203 261.02C203 267.647 208.373 273.02 215 273.02Z" fill="#6C63FF"/>
</g>
<defs>
<linearGradient id="paint0_linear" x1="601.62" y1="992.41" x2="601.62" y2="306.41" gradientUnits="userSpaceOnUse">
<stop stop-color="#808080" stop-opacity="0.25"/>
<stop offset="0.54" stop-color="#808080" stop-opacity="0.12"/>
<stop offset="1" stop-color="#808080" stop-opacity="0.1"/>
</linearGradient>
<clipPath id="clip0">
<rect x="203" y="168" width="998.95" height="833.99" fill="white"/>
</clipPath>
</defs>
</svg>
